G04*
G04 #@! TF.GenerationSoftware,Altium Limited,Altium Designer,25.1.2 (22)*
G04*
G04 Layer_Color=8388736*
%FSLAX25Y25*%
%MOIN*%
G70*
G04*
G04 #@! TF.SameCoordinates,20C2AC38-BB5E-479F-A31B-2D12C5FD2638*
G04*
G04*
G04 #@! TF.FilePolarity,Positive*
G04*
G01*
G75*
%ADD10C,0.01000*%
%ADD19C,0.00984*%
%ADD20C,0.00600*%
D10*
X-19685Y196850D02*
X-17685Y190850D01*
X-21685D02*
X-19685Y196850D01*
X-21685Y6000D02*
X-19685Y0D01*
X-17685Y6000D01*
X-19685Y111921D02*
Y196850D01*
Y0D02*
Y81730D01*
X-20685Y196850D02*
X82177D01*
X-20685Y0D02*
X82177D01*
X0Y-19685D02*
X6000Y-17685D01*
X0Y-19685D02*
X6000Y-21685D01*
X190850D02*
X196850Y-19685D01*
X190850Y-17685D02*
X196850Y-19685D01*
X0D02*
X81730D01*
X111921D02*
X196850D01*
X0Y-20685D02*
Y82177D01*
X196850Y-20685D02*
Y82177D01*
Y98425D02*
G03*
X196850Y98425I-98425J0D01*
G01*
D19*
X-280512Y-173228D02*
Y-167325D01*
X-277560D01*
X-276576Y-168309D01*
Y-170276D01*
X-277560Y-171260D01*
X-280512D01*
X-278544D02*
X-276576Y-173228D01*
X-271656D02*
X-273624D01*
X-274608Y-172244D01*
Y-170276D01*
X-273624Y-169293D01*
X-271656D01*
X-270672Y-170276D01*
Y-171260D01*
X-274608D01*
X-264769Y-167325D02*
Y-173228D01*
X-267721D01*
X-268705Y-172244D01*
Y-170276D01*
X-267721Y-169293D01*
X-264769D01*
X-252962Y-168309D02*
X-253946Y-167325D01*
X-255913D01*
X-256897Y-168309D01*
Y-169293D01*
X-255913Y-170276D01*
X-253946D01*
X-252962Y-171260D01*
Y-172244D01*
X-253946Y-173228D01*
X-255913D01*
X-256897Y-172244D01*
X-250010Y-173228D02*
X-248042D01*
X-247058Y-172244D01*
Y-170276D01*
X-248042Y-169293D01*
X-250010D01*
X-250994Y-170276D01*
Y-172244D01*
X-250010Y-173228D01*
X-245090D02*
X-243122D01*
X-244106D01*
Y-167325D01*
X-245090D01*
X-236235D02*
Y-173228D01*
X-239187D01*
X-240171Y-172244D01*
Y-170276D01*
X-239187Y-169293D01*
X-236235D01*
X-231315Y-173228D02*
X-233283D01*
X-234267Y-172244D01*
Y-170276D01*
X-233283Y-169293D01*
X-231315D01*
X-230331Y-170276D01*
Y-171260D01*
X-234267D01*
X-228363Y-169293D02*
Y-173228D01*
Y-171260D01*
X-227379Y-170276D01*
X-226396Y-169293D01*
X-225412D01*
X-216556Y-173228D02*
Y-167325D01*
X-214588Y-169293D01*
X-212620Y-167325D01*
Y-173228D01*
X-209669Y-169293D02*
X-207701D01*
X-206717Y-170276D01*
Y-173228D01*
X-209669D01*
X-210653Y-172244D01*
X-209669Y-171260D01*
X-206717D01*
X-204749Y-173228D02*
X-201797D01*
X-200813Y-172244D01*
X-201797Y-171260D01*
X-203765D01*
X-204749Y-170276D01*
X-203765Y-169293D01*
X-200813D01*
X-198845Y-173228D02*
Y-167325D01*
Y-171260D02*
X-195894Y-169293D01*
X-198845Y-171260D02*
X-195894Y-173228D01*
X-280512Y-208661D02*
X-278544D01*
X-279528D01*
Y-202758D01*
X-280512Y-203742D01*
X-275592Y-208661D02*
Y-207678D01*
X-274608D01*
Y-208661D01*
X-275592D01*
X-266737Y-202758D02*
X-268705Y-203742D01*
X-270672Y-205710D01*
Y-207678D01*
X-269689Y-208661D01*
X-267721D01*
X-266737Y-207678D01*
Y-206694D01*
X-267721Y-205710D01*
X-270672D01*
X-264769Y-208661D02*
Y-204726D01*
X-263785D01*
X-262801Y-205710D01*
Y-208661D01*
Y-205710D01*
X-261817Y-204726D01*
X-260833Y-205710D01*
Y-208661D01*
X-258865D02*
Y-204726D01*
X-257881D01*
X-256897Y-205710D01*
Y-208661D01*
Y-205710D01*
X-255913Y-204726D01*
X-254930Y-205710D01*
Y-208661D01*
X-247058Y-202758D02*
X-243122D01*
X-245090D01*
Y-208661D01*
X-241155Y-202758D02*
Y-208661D01*
Y-205710D01*
X-240171Y-204726D01*
X-238203D01*
X-237219Y-205710D01*
Y-208661D01*
X-235251D02*
X-233283D01*
X-234267D01*
Y-204726D01*
X-235251D01*
X-226396D02*
X-229347D01*
X-230331Y-205710D01*
Y-207678D01*
X-229347Y-208661D01*
X-226396D01*
X-224428D02*
Y-202758D01*
Y-206694D02*
X-221476Y-204726D01*
X-224428Y-206694D02*
X-221476Y-208661D01*
X-218524D02*
Y-204726D01*
X-215572D01*
X-214588Y-205710D01*
Y-208661D01*
X-209669D02*
X-211636D01*
X-212620Y-207678D01*
Y-205710D01*
X-211636Y-204726D01*
X-209669D01*
X-208685Y-205710D01*
Y-206694D01*
X-212620D01*
X-206717Y-208661D02*
X-203765D01*
X-202781Y-207678D01*
X-203765Y-206694D01*
X-205733D01*
X-206717Y-205710D01*
X-205733Y-204726D01*
X-202781D01*
X-200813Y-208661D02*
X-197861D01*
X-196878Y-207678D01*
X-197861Y-206694D01*
X-199829D01*
X-200813Y-205710D01*
X-199829Y-204726D01*
X-196878D01*
X-280512Y-179136D02*
Y-185039D01*
X-278544Y-183071D01*
X-276576Y-185039D01*
Y-179136D01*
X-274608D02*
Y-185039D01*
Y-182088D01*
X-273624Y-181104D01*
X-271656D01*
X-270672Y-182088D01*
Y-185039D01*
X-268705D02*
X-266737D01*
X-267721D01*
Y-181104D01*
X-268705D01*
X-262801Y-180120D02*
Y-181104D01*
X-263785D01*
X-261817D01*
X-262801D01*
Y-184055D01*
X-261817Y-185039D01*
X-255913D02*
X-257881D01*
X-258865Y-184055D01*
Y-182088D01*
X-257881Y-181104D01*
X-255913D01*
X-254930Y-182088D01*
Y-183071D01*
X-258865D01*
X-243122Y-180120D02*
X-244106Y-179136D01*
X-246074D01*
X-247058Y-180120D01*
Y-181104D01*
X-246074Y-182088D01*
X-244106D01*
X-243122Y-183071D01*
Y-184055D01*
X-244106Y-185039D01*
X-246074D01*
X-247058Y-184055D01*
X-241155Y-185039D02*
X-239187D01*
X-240171D01*
Y-181104D01*
X-241155D01*
X-236235Y-185039D02*
X-234267D01*
X-235251D01*
Y-179136D01*
X-236235D01*
X-231315Y-185039D02*
Y-179136D01*
Y-183071D02*
X-228363Y-181104D01*
X-231315Y-183071D02*
X-228363Y-185039D01*
X-225412D02*
X-222460D01*
X-221476Y-184055D01*
X-222460Y-183071D01*
X-224428D01*
X-225412Y-182088D01*
X-224428Y-181104D01*
X-221476D01*
X-215572D02*
X-218524D01*
X-219508Y-182088D01*
Y-184055D01*
X-218524Y-185039D01*
X-215572D01*
X-213604Y-181104D02*
Y-185039D01*
Y-183071D01*
X-212620Y-182088D01*
X-211636Y-181104D01*
X-210652D01*
X-204749Y-185039D02*
X-206717D01*
X-207701Y-184055D01*
Y-182088D01*
X-206717Y-181104D01*
X-204749D01*
X-203765Y-182088D01*
Y-183071D01*
X-207701D01*
X-198845Y-185039D02*
X-200813D01*
X-201797Y-184055D01*
Y-182088D01*
X-200813Y-181104D01*
X-198845D01*
X-197861Y-182088D01*
Y-183071D01*
X-201797D01*
X-195894Y-185039D02*
Y-181104D01*
X-192942D01*
X-191958Y-182088D01*
Y-185039D01*
X-280512Y-190947D02*
Y-196850D01*
X-276576D01*
X-271656D02*
X-273624D01*
X-274608Y-195867D01*
Y-193899D01*
X-273624Y-192915D01*
X-271656D01*
X-270672Y-193899D01*
Y-194883D01*
X-274608D01*
X-267721Y-192915D02*
X-265753D01*
X-264769Y-193899D01*
Y-196850D01*
X-267721D01*
X-268705Y-195867D01*
X-267721Y-194883D01*
X-264769D01*
X-258865Y-190947D02*
Y-196850D01*
X-261817D01*
X-262801Y-195867D01*
Y-193899D01*
X-261817Y-192915D01*
X-258865D01*
X-247058Y-190947D02*
X-250994D01*
Y-193899D01*
X-249026D01*
X-250994D01*
Y-196850D01*
X-245090Y-192915D02*
Y-196850D01*
Y-194883D01*
X-244106Y-193899D01*
X-243122Y-192915D01*
X-242138D01*
X-236235Y-196850D02*
X-238203D01*
X-239187Y-195867D01*
Y-193899D01*
X-238203Y-192915D01*
X-236235D01*
X-235251Y-193899D01*
Y-194883D01*
X-239187D01*
X-230331Y-196850D02*
X-232299D01*
X-233283Y-195867D01*
Y-193899D01*
X-232299Y-192915D01*
X-230331D01*
X-229347Y-193899D01*
Y-194883D01*
X-233283D01*
X-221476Y-190947D02*
Y-196850D01*
Y-193899D01*
X-217540D01*
Y-190947D01*
Y-196850D01*
X-215572D02*
Y-192915D01*
X-213604Y-190947D01*
X-211636Y-192915D01*
Y-196850D01*
Y-193899D01*
X-215572D01*
X-205733Y-191931D02*
X-206717Y-190947D01*
X-208685D01*
X-209669Y-191931D01*
Y-192915D01*
X-208685Y-193899D01*
X-206717D01*
X-205733Y-194883D01*
Y-195867D01*
X-206717Y-196850D01*
X-208685D01*
X-209669Y-195867D01*
X-203765Y-190947D02*
Y-196850D01*
X-199829D01*
X-190974D02*
Y-191931D01*
Y-193899D01*
X-191958D01*
X-189990D01*
X-190974D01*
Y-191931D01*
X-189990Y-190947D01*
X-187038Y-196850D02*
X-185070D01*
X-186054D01*
Y-192915D01*
X-187038D01*
X-182118Y-196850D02*
Y-192915D01*
X-179167D01*
X-178183Y-193899D01*
Y-196850D01*
X-176215D02*
X-174247D01*
X-175231D01*
Y-192915D01*
X-176215D01*
X-171295Y-196850D02*
X-168343D01*
X-167359Y-195867D01*
X-168343Y-194883D01*
X-170311D01*
X-171295Y-193899D01*
X-170311Y-192915D01*
X-167359D01*
X-165392Y-190947D02*
Y-196850D01*
Y-193899D01*
X-164408Y-192915D01*
X-162440D01*
X-161456Y-193899D01*
Y-196850D01*
D20*
X-22084Y87328D02*
Y83330D01*
X-19085D01*
X-20085Y85329D01*
Y86329D01*
X-19085Y87328D01*
X-17086D01*
X-16086Y86329D01*
Y84329D01*
X-17086Y83330D01*
X-21084Y89328D02*
X-22084Y90327D01*
Y92327D01*
X-21084Y93326D01*
X-17086D01*
X-16086Y92327D01*
Y90327D01*
X-17086Y89328D01*
X-21084D01*
X-16086Y95326D02*
X-17086D01*
Y96325D01*
X-16086D01*
Y95326D01*
X-21084Y100324D02*
X-22084Y101324D01*
Y103323D01*
X-21084Y104323D01*
X-17086D01*
X-16086Y103323D01*
Y101324D01*
X-17086Y100324D01*
X-21084D01*
Y106322D02*
X-22084Y107322D01*
Y109321D01*
X-21084Y110321D01*
X-17086D01*
X-16086Y109321D01*
Y107322D01*
X-17086Y106322D01*
X-21084D01*
X87328Y-17286D02*
X83330D01*
Y-20285D01*
X85329Y-19285D01*
X86329D01*
X87328Y-20285D01*
Y-22284D01*
X86329Y-23284D01*
X84329D01*
X83330Y-22284D01*
X89328Y-18286D02*
X90327Y-17286D01*
X92327D01*
X93326Y-18286D01*
Y-22284D01*
X92327Y-23284D01*
X90327D01*
X89328Y-22284D01*
Y-18286D01*
X95326Y-23284D02*
Y-22284D01*
X96325D01*
Y-23284D01*
X95326D01*
X100324Y-18286D02*
X101324Y-17286D01*
X103323D01*
X104323Y-18286D01*
Y-22284D01*
X103323Y-23284D01*
X101324D01*
X100324Y-22284D01*
Y-18286D01*
X106322D02*
X107322Y-17286D01*
X109321D01*
X110321Y-18286D01*
Y-22284D01*
X109321Y-23284D01*
X107322D01*
X106322Y-22284D01*
Y-18286D01*
M02*
