G04*
G04 #@! TF.GenerationSoftware,Altium Limited,Altium Designer,25.1.2 (22)*
G04*
G04 Layer_Color=16711935*
%FSLAX25Y25*%
%MOIN*%
G70*
G04*
G04 #@! TF.SameCoordinates,20C2AC38-BB5E-479F-A31B-2D12C5FD2638*
G04*
G04*
G04 #@! TF.FilePolarity,Negative*
G04*
G01*
G75*
%ADD10C,0.01000*%
G04:AMPARAMS|DCode=11|XSize=63.94mil|YSize=63.94mil|CornerRadius=16.97mil|HoleSize=0mil|Usage=FLASHONLY|Rotation=180.000|XOffset=0mil|YOffset=0mil|HoleType=Round|Shape=RoundedRectangle|*
%AMROUNDEDRECTD11*
21,1,0.06394,0.03000,0,0,180.0*
21,1,0.03000,0.06394,0,0,180.0*
1,1,0.03394,-0.01500,0.01500*
1,1,0.03394,0.01500,0.01500*
1,1,0.03394,0.01500,-0.01500*
1,1,0.03394,-0.01500,-0.01500*
%
%ADD11ROUNDEDRECTD11*%
%ADD12C,0.06394*%
%ADD13C,0.06693*%
G36*
X173162Y130723D02*
X121704Y130718D01*
X120986D01*
X120981Y152726D01*
X173156Y152731D01*
X173162Y130723D01*
D02*
G37*
G36*
X137176Y81949D02*
X137196Y81901D01*
X137224Y81824D01*
X137244Y81776D01*
X137273Y81699D01*
X137297Y81637D01*
X137316Y81588D01*
X137345Y81521D01*
X137297Y81511D01*
X136873Y81473D01*
X136777Y81463D01*
X136460Y81434D01*
X136344Y81425D01*
X136238Y81415D01*
X135661Y81367D01*
X135555Y81357D01*
X135430Y81348D01*
X135315Y81338D01*
X134940Y81309D01*
X134824Y81300D01*
X134324Y81261D01*
X134189Y81252D01*
X133963Y81237D01*
X133924Y81228D01*
X133617Y81208D01*
X133588Y81199D01*
X133506Y81204D01*
X133468Y81213D01*
X133415Y81228D01*
X133338Y81276D01*
X133318Y81285D01*
X133299Y81305D01*
X133280Y81314D01*
X133251Y81343D01*
X133232Y81353D01*
X133184Y81401D01*
X133165Y81410D01*
X133112Y81463D01*
X133160Y81473D01*
X133237Y81482D01*
X133323Y81492D01*
X133708Y81540D01*
X133795Y81550D01*
X133944Y81564D01*
X133949Y81569D01*
X134102Y81588D01*
X134189Y81598D01*
X134266Y81608D01*
X134353Y81617D01*
X134430Y81627D01*
X134516Y81637D01*
X134593Y81646D01*
X134680Y81656D01*
X134757Y81665D01*
X134843Y81675D01*
X134920Y81685D01*
X135007Y81694D01*
X135161Y81713D01*
X135247Y81723D01*
X135324Y81733D01*
X135411Y81742D01*
X135488Y81752D01*
X135574Y81761D01*
X135652Y81771D01*
X135738Y81781D01*
X135815Y81790D01*
X135902Y81800D01*
X135979Y81810D01*
X136065Y81819D01*
X136989Y81935D01*
X137128Y81949D01*
X137157Y81959D01*
X137176Y81949D01*
D02*
G37*
G36*
X155105Y82897D02*
X155509Y82887D01*
X156413Y82877D01*
X156731Y82868D01*
X157741Y82839D01*
X158010Y82829D01*
X158251Y82820D01*
X159001Y82791D01*
X159232Y82781D01*
X159424Y82772D01*
X160406Y82724D01*
X160589Y82714D01*
X161079Y82685D01*
X161252Y82675D01*
X161416Y82666D01*
X161700Y82651D01*
X161767Y82642D01*
X162340Y82608D01*
X162604Y82594D01*
X162643Y82584D01*
X163215Y82550D01*
X163350Y82541D01*
X163475Y82531D01*
X163744Y82512D01*
X163869Y82502D01*
X164273Y82473D01*
X164399Y82464D01*
X164533Y82454D01*
X164649Y82445D01*
X164774Y82435D01*
X165351Y82387D01*
X165476Y82377D01*
X165938Y82339D01*
X166063Y82329D01*
X166640Y82281D01*
X166765Y82271D01*
X167227Y82233D01*
X167333Y82223D01*
X167525Y82204D01*
X167631Y82195D01*
X167824Y82175D01*
X167929Y82166D01*
X168026Y82156D01*
X168131Y82146D01*
X168324Y82127D01*
X168430Y82117D01*
X168622Y82098D01*
X168728Y82089D01*
X168920Y82069D01*
X169026Y82060D01*
X169219Y82041D01*
X169324Y82031D01*
X169613Y82002D01*
X169873Y81973D01*
X169969Y81964D01*
X170229Y81935D01*
X170325Y81925D01*
X170585Y81896D01*
X170681Y81887D01*
X170854Y81867D01*
X170950Y81858D01*
X171210Y81829D01*
X171306Y81819D01*
X171566Y81790D01*
X171662Y81781D01*
X171835Y81761D01*
X171912Y81752D01*
X171999Y81742D01*
X172153Y81723D01*
X172239Y81713D01*
X172393Y81694D01*
X172480Y81685D01*
X172634Y81665D01*
X172721Y81656D01*
X172874Y81637D01*
X172961Y81627D01*
X173115Y81608D01*
X173202Y81598D01*
X173355Y81579D01*
X173442Y81569D01*
X173596Y81550D01*
X173683Y81540D01*
X173822Y81526D01*
X173861Y81516D01*
X173957Y81507D01*
X174024Y81497D01*
X174154Y81482D01*
X174351Y81458D01*
X174390Y81449D01*
X174520Y81434D01*
X174640Y81420D01*
X174678Y81410D01*
X174808Y81396D01*
X175005Y81372D01*
X175044Y81362D01*
X175174Y81348D01*
X175371Y81324D01*
X175409Y81314D01*
X175539Y81300D01*
X175660Y81285D01*
X175698Y81276D01*
X175828Y81261D01*
X176025Y81237D01*
X176064Y81228D01*
X176194Y81213D01*
X176314Y81199D01*
X176352Y81189D01*
X176482Y81175D01*
X178147Y80934D01*
X178676Y80857D01*
X178734Y80848D01*
X178859Y80828D01*
X178916Y80819D01*
X179041Y80799D01*
X179099Y80790D01*
X179224Y80771D01*
X179282Y80761D01*
X179407Y80742D01*
X179465Y80732D01*
X179715Y80694D01*
X179773Y80684D01*
X179898Y80665D01*
X179955Y80655D01*
X180080Y80636D01*
X180138Y80626D01*
X180263Y80607D01*
X180321Y80597D01*
X180446Y80578D01*
X180504Y80568D01*
X180629Y80549D01*
X180687Y80540D01*
X180812Y80520D01*
X181216Y80453D01*
X181264Y80444D01*
X181552Y80395D01*
X181600Y80386D01*
X181889Y80338D01*
X181937Y80328D01*
X182226Y80280D01*
X182274Y80270D01*
X182563Y80222D01*
X182611Y80213D01*
X182899Y80164D01*
X182948Y80155D01*
X183178Y80116D01*
X183227Y80107D01*
X183284Y80097D01*
X183332Y80088D01*
X183390Y80078D01*
X183486Y80059D01*
X183544Y80049D01*
X183592Y80039D01*
X183650Y80030D01*
X183746Y80010D01*
X183804Y80001D01*
X183852Y79991D01*
X183909Y79982D01*
X184006Y79962D01*
X184063Y79953D01*
X184112Y79943D01*
X184169Y79934D01*
X184265Y79914D01*
X184323Y79905D01*
X184371Y79895D01*
X184429Y79886D01*
X184477Y79876D01*
X184535Y79866D01*
X184631Y79847D01*
X184689Y79837D01*
X184737Y79828D01*
X184795Y79818D01*
X184891Y79799D01*
X184949Y79789D01*
X184997Y79780D01*
X185054Y79770D01*
X185151Y79751D01*
X185208Y79741D01*
X185257Y79732D01*
X185314Y79722D01*
X185362Y79712D01*
X185454Y79698D01*
X185463Y79679D01*
X185473Y79640D01*
X185492Y79544D01*
X185502Y79505D01*
X185511Y79457D01*
X185521Y79419D01*
X185540Y79323D01*
X185550Y79284D01*
X185598Y79044D01*
X185608Y79005D01*
X185656Y78765D01*
X185665Y78726D01*
X185694Y78582D01*
X185704Y78543D01*
X185723Y78447D01*
X185747Y78337D01*
X185757Y78308D01*
X185752Y78293D01*
X185709Y78298D01*
X185612Y78317D01*
X185555Y78327D01*
X185314Y78375D01*
X185257Y78385D01*
X185064Y78423D01*
X185006Y78433D01*
X184814Y78471D01*
X184756Y78481D01*
X184564Y78519D01*
X184506Y78529D01*
X184314Y78567D01*
X184256Y78577D01*
X184063Y78615D01*
X184006Y78625D01*
X183813Y78664D01*
X183756Y78673D01*
X183611Y78702D01*
X183554Y78712D01*
X183457Y78731D01*
X183400Y78741D01*
X183352Y78750D01*
X183294Y78760D01*
X183198Y78779D01*
X183140Y78789D01*
X183092Y78798D01*
X183034Y78808D01*
X182938Y78827D01*
X182880Y78837D01*
X182784Y78856D01*
X182726Y78866D01*
X182678Y78875D01*
X182620Y78885D01*
X182524Y78904D01*
X182466Y78914D01*
X182418Y78923D01*
X182361Y78933D01*
X182264Y78952D01*
X182207Y78962D01*
X182159Y78971D01*
X182101Y78981D01*
X182005Y79000D01*
X181947Y79010D01*
X181851Y79029D01*
X181793Y79039D01*
X181745Y79048D01*
X181687Y79058D01*
X181591Y79077D01*
X181533Y79087D01*
X181485Y79097D01*
X181370Y79116D01*
X181322Y79125D01*
X181264Y79135D01*
X181216Y79145D01*
X181100Y79164D01*
X181052Y79173D01*
X180937Y79193D01*
X180889Y79202D01*
X180831Y79212D01*
X180783Y79222D01*
X180667Y79241D01*
X180619Y79251D01*
X180504Y79270D01*
X180456Y79279D01*
X180398Y79289D01*
X180350Y79299D01*
X180234Y79318D01*
X180186Y79327D01*
X180071Y79347D01*
X180023Y79356D01*
X179907Y79375D01*
X179859Y79385D01*
X179801Y79395D01*
X179753Y79404D01*
X179638Y79424D01*
X179590Y79433D01*
X179474Y79453D01*
X179426Y79462D01*
X179195Y79501D01*
X179147Y79510D01*
X178570Y79606D01*
X178522Y79616D01*
X177945Y79712D01*
X177896Y79722D01*
X177088Y79857D01*
X176963Y79876D01*
X176848Y79895D01*
X176723Y79914D01*
X176607Y79934D01*
X176482Y79953D01*
X176367Y79972D01*
X176242Y79991D01*
X176126Y80010D01*
X176001Y80030D01*
X175886Y80049D01*
X175761Y80068D01*
X175645Y80088D01*
X175520Y80107D01*
X175405Y80126D01*
X175280Y80145D01*
X175222Y80155D01*
X175097Y80174D01*
X172980Y80492D01*
X172870Y80506D01*
X172831Y80516D01*
X172634Y80540D01*
X172523Y80554D01*
X172485Y80564D01*
X172288Y80588D01*
X172177Y80602D01*
X172139Y80612D01*
X172009Y80626D01*
X171898Y80641D01*
X171860Y80650D01*
X171662Y80674D01*
X171552Y80689D01*
X171513Y80698D01*
X171316Y80722D01*
X171205Y80737D01*
X171167Y80747D01*
X170849Y80785D01*
X170811Y80795D01*
X170681Y80809D01*
X170450Y80838D01*
X170320Y80852D01*
X170282Y80862D01*
X170152Y80876D01*
X169921Y80905D01*
X169791Y80920D01*
X169753Y80929D01*
X169623Y80944D01*
X169315Y80982D01*
X169185Y80997D01*
X169146Y81006D01*
X169017Y81021D01*
X168632Y81069D01*
X168458Y81088D01*
X168382Y81098D01*
X168295Y81107D01*
X168218Y81117D01*
X168131Y81126D01*
X168054Y81136D01*
X167881Y81155D01*
X167804Y81165D01*
X167718Y81175D01*
X167641Y81184D01*
X167554Y81194D01*
X167477Y81204D01*
X167304Y81223D01*
X167227Y81232D01*
X167140Y81242D01*
X167063Y81252D01*
X166977Y81261D01*
X166881Y81271D01*
X166708Y81290D01*
X166611Y81300D01*
X166525Y81309D01*
X166428Y81319D01*
X166255Y81338D01*
X166159Y81348D01*
X165986Y81367D01*
X165890Y81377D01*
X165717Y81396D01*
X165620Y81406D01*
X165447Y81425D01*
X165255Y81444D01*
X165149Y81454D01*
X164860Y81482D01*
X164754Y81492D01*
X164562Y81511D01*
X164456Y81521D01*
X164168Y81550D01*
X164062Y81559D01*
X163869Y81579D01*
X163763Y81588D01*
X163667Y81598D01*
X163552Y81608D01*
X163446Y81617D01*
X163331Y81627D01*
X163225Y81637D01*
X163109Y81646D01*
X163004Y81656D01*
X162888Y81665D01*
X162782Y81675D01*
X162667Y81685D01*
X162561Y81694D01*
X162445Y81704D01*
X162340Y81713D01*
X162224Y81723D01*
X162118Y81733D01*
X162003Y81742D01*
X161753Y81761D01*
X161637Y81771D01*
X160387Y81867D01*
X160108Y81887D01*
X158684Y81983D01*
X158530Y81992D01*
X158357Y82002D01*
X157866Y82031D01*
X157693Y82041D01*
X157202Y82069D01*
X157029Y82079D01*
X156846Y82089D01*
X156250Y82117D01*
X155846Y82137D01*
X155475Y82151D01*
X155446Y82161D01*
X155042Y82170D01*
X155013Y82180D01*
X154099Y82190D01*
X153970Y82204D01*
X153864Y82214D01*
X153700Y82223D01*
X152882Y82233D01*
X152767Y82243D01*
X152642Y82252D01*
X152421Y82262D01*
X151083Y82271D01*
X150833Y82281D01*
X150525Y82291D01*
X149491Y82286D01*
X149462Y82276D01*
X148866Y82286D01*
X148837Y82276D01*
X147995Y82262D01*
X147283Y82243D01*
X147014Y82233D01*
X146273Y82204D01*
X146071Y82195D01*
X145301Y82156D01*
X145128Y82146D01*
X144965Y82137D01*
X144810Y82127D01*
X144527Y82113D01*
X144459Y82103D01*
X144031Y82079D01*
X143608Y82050D01*
X143194Y82021D01*
X142694Y81983D01*
X142559Y81973D01*
X142309Y81954D01*
X141732Y81906D01*
X141607Y81896D01*
X141376Y81877D01*
X141179Y81862D01*
X141169D01*
X141155Y81858D01*
X141049Y81848D01*
X140933Y81839D01*
X140722Y81819D01*
X140606Y81810D01*
X140395Y81790D01*
X140308Y81781D01*
X140231Y81771D01*
X140144Y81761D01*
X140068Y81752D01*
X139894Y81733D01*
X139745Y81718D01*
X139711Y81819D01*
X139683Y81887D01*
X139663Y81935D01*
X139548Y82175D01*
X139745Y82199D01*
X139813Y82209D01*
X139909Y82218D01*
X139976Y82228D01*
X140106Y82243D01*
X140337Y82271D01*
X140423Y82281D01*
X140520Y82291D01*
X140645Y82300D01*
X141385Y82368D01*
X141501Y82377D01*
X142030Y82425D01*
X142261Y82445D01*
X142386Y82454D01*
X142501Y82464D01*
X142627Y82473D01*
X142742Y82483D01*
X142867Y82493D01*
X142983Y82502D01*
X143108Y82512D01*
X143223Y82522D01*
X143473Y82541D01*
X143743Y82560D01*
X145003Y82647D01*
X145176Y82656D01*
X145503Y82675D01*
X145676Y82685D01*
X146003Y82704D01*
X146177Y82714D01*
X146340Y82724D01*
X146523Y82733D01*
X147764Y82791D01*
X148005Y82801D01*
X148543Y82820D01*
X149361Y82849D01*
X149756Y82858D01*
X150511Y82873D01*
X150540Y82882D01*
X151723Y82892D01*
X151752Y82902D01*
X155105Y82897D01*
D02*
G37*
%LPC*%
G36*
X154588Y151753D02*
X121986D01*
X121970Y151737D01*
X121959Y131756D01*
X121975Y131707D01*
X172156Y131696D01*
X172172Y131712D01*
X172183Y151693D01*
X172167Y151742D01*
X154588Y151753D01*
D02*
G37*
%LPD*%
G36*
X151963Y140974D02*
X151974Y139333D01*
X151985Y139289D01*
X152006Y139278D01*
X152789Y139268D01*
X152800Y138235D01*
X152768Y138213D01*
X152045Y138219D01*
X152001Y138208D01*
X151985Y138191D01*
X151974Y135941D01*
X151963Y135376D01*
X151952Y135300D01*
X151941Y135267D01*
X151920Y135126D01*
X151898Y135039D01*
X151876Y134984D01*
X151767Y134756D01*
X151735Y134723D01*
X151724Y134702D01*
X151631Y134609D01*
X151577Y134577D01*
X151544Y134544D01*
X151523Y134533D01*
X151436Y134479D01*
X151392Y134468D01*
X151376Y134452D01*
X151305Y134425D01*
X151246Y134408D01*
X151191Y134387D01*
X151110Y134370D01*
X151077Y134359D01*
X150990Y134338D01*
X150838Y134316D01*
X150664Y134305D01*
X150631Y134294D01*
X150099Y134283D01*
X149990Y134294D01*
X149957Y134305D01*
X149729Y134316D01*
X149490Y134338D01*
X149381Y134348D01*
X149338Y134359D01*
X149321Y134376D01*
X149327Y135392D01*
X149348Y135403D01*
X149425Y135381D01*
X149435D01*
X149446Y135370D01*
X149707Y135360D01*
X149740Y135349D01*
X150033Y135360D01*
X150077Y135370D01*
X150126Y135387D01*
X150186Y135403D01*
X150240Y135425D01*
X150316Y135468D01*
X150387Y135539D01*
X150441Y135637D01*
X150457Y135675D01*
X150474Y135756D01*
X150485Y135800D01*
X150495Y135832D01*
X150506Y138148D01*
X150495Y138191D01*
X150479Y138208D01*
X149240Y138219D01*
X149223Y138246D01*
X149229Y139262D01*
X150468Y139273D01*
X150501Y139306D01*
X150512Y140980D01*
X151947Y140991D01*
X151963Y140974D01*
D02*
G37*
G36*
X166835Y141300D02*
X167025Y141284D01*
X167101Y141273D01*
X167134Y141262D01*
X167253Y141252D01*
X167297Y141241D01*
X167356Y141224D01*
X167492Y141197D01*
X167617Y141159D01*
X167677Y141143D01*
X167721Y141132D01*
X167770Y141105D01*
X167829Y141088D01*
X167927Y141045D01*
X168090Y140969D01*
X168210Y140904D01*
X168232Y140893D01*
X168351Y140817D01*
X168427Y140773D01*
X168460Y140741D01*
X168482Y140730D01*
X168514Y140697D01*
X168569Y140665D01*
X168656Y140578D01*
X168677Y140567D01*
X168868Y140376D01*
X168878Y140355D01*
X168933Y140300D01*
X168944Y140279D01*
X168976Y140246D01*
X168987Y140224D01*
X169009Y140202D01*
X169047Y140143D01*
X169096Y140083D01*
X169139Y140007D01*
X169161Y139985D01*
X169204Y139909D01*
X169259Y139811D01*
X169335Y139670D01*
X169444Y139431D01*
X169465Y139355D01*
X169498Y139278D01*
X169520Y139191D01*
X169542Y139137D01*
X169563Y139050D01*
X169590Y138958D01*
X169607Y138887D01*
X169618Y138811D01*
X169639Y138757D01*
X169650Y138659D01*
X169661Y138626D01*
X169672Y138474D01*
X169694Y138387D01*
X169705Y138355D01*
X169715Y137887D01*
X169726Y137854D01*
X169721Y137718D01*
X169710Y137425D01*
X169699Y137197D01*
X169677Y137088D01*
X169667Y136990D01*
X169650Y136822D01*
X169623Y136729D01*
X169607Y136626D01*
X169585Y136539D01*
X169569Y136479D01*
X169558Y136436D01*
X169547Y136371D01*
X169509Y136267D01*
X169498Y136224D01*
X169482Y136164D01*
X169460Y136110D01*
X169444Y136050D01*
X169400Y135952D01*
X169368Y135876D01*
X169324Y135767D01*
X169302Y135745D01*
X169291Y135702D01*
X169248Y135637D01*
X169237Y135593D01*
X169215Y135572D01*
X169128Y135419D01*
X169107Y135398D01*
X169096Y135376D01*
X169042Y135300D01*
X169031Y135278D01*
X168998Y135245D01*
X168987Y135224D01*
X168955Y135191D01*
X168922Y135137D01*
X168683Y134897D01*
X168623Y134849D01*
X168601Y134838D01*
X168569Y134805D01*
X168547Y134794D01*
X168514Y134762D01*
X168460Y134729D01*
X168438Y134707D01*
X168286Y134620D01*
X168264Y134599D01*
X168242Y134588D01*
X168188Y134566D01*
X168166Y134544D01*
X168123Y134533D01*
X168058Y134490D01*
X168014Y134479D01*
X167960Y134457D01*
X167944Y134441D01*
X167884Y134425D01*
X167840Y134414D01*
X167764Y134381D01*
X167721Y134370D01*
X167672Y134354D01*
X167612Y134338D01*
X167579Y134327D01*
X167492Y134316D01*
X167438Y134294D01*
X167351Y134283D01*
X167318Y134272D01*
X167166Y134262D01*
X167014Y134240D01*
X166981Y134229D01*
X166508Y134234D01*
X166465Y134245D01*
X166411Y134256D01*
X166302Y134267D01*
X166248Y134278D01*
X166182Y134289D01*
X166128Y134310D01*
X166085Y134321D01*
X166014Y134338D01*
X165824Y134419D01*
X165764Y134435D01*
X165737Y134463D01*
X165666Y134490D01*
X165644Y134511D01*
X165568Y134555D01*
X165514Y134588D01*
X165492Y134609D01*
X165438Y134642D01*
X165405Y134675D01*
X165383Y134686D01*
X165182Y134887D01*
X165155Y134925D01*
X165052Y135061D01*
X165019Y135115D01*
X165003Y135131D01*
X164976Y135202D01*
X164948Y135262D01*
X164894Y135273D01*
X164889Y134397D01*
X164878Y134354D01*
X164856Y134343D01*
X163829Y134348D01*
X163753Y134338D01*
X163704Y134354D01*
X163693Y137746D01*
X163709Y137762D01*
X163764Y137773D01*
X163807Y137762D01*
X163840Y137773D01*
X166161Y137767D01*
X166286Y137773D01*
X166302Y137757D01*
X166313Y136680D01*
X166275Y136664D01*
X166242Y136675D01*
X166209Y136664D01*
X166193Y136670D01*
X165383Y136664D01*
X165340Y136675D01*
X165296Y136664D01*
X165188Y136675D01*
X165144Y136664D01*
X165117Y136615D01*
X165155Y136490D01*
X165171Y136430D01*
X165182Y136387D01*
X165215Y136311D01*
X165258Y136213D01*
X165269Y136191D01*
X165340Y136055D01*
X165383Y135990D01*
X165432Y135930D01*
X165443Y135908D01*
X165584Y135767D01*
X165644Y135718D01*
X165666Y135707D01*
X165688Y135686D01*
X165742Y135653D01*
X165775Y135620D01*
X165818Y135609D01*
X165845Y135582D01*
X165949Y135544D01*
X165970Y135523D01*
X166057Y135501D01*
X166133Y135468D01*
X166220Y135457D01*
X166297Y135447D01*
X166329Y135436D01*
X166677Y135425D01*
X166764Y135447D01*
X166775D01*
X166873Y135457D01*
X166916Y135468D01*
X167009Y135495D01*
X167068Y135512D01*
X167166Y135555D01*
X167221Y135577D01*
X167318Y135631D01*
X167394Y135675D01*
X167427Y135707D01*
X167449Y135718D01*
X167481Y135751D01*
X167503Y135762D01*
X167547Y135805D01*
X167585Y135832D01*
X167596Y135854D01*
X167628Y135876D01*
X167639Y135898D01*
X167683Y135941D01*
X167693Y135963D01*
X167726Y135995D01*
X167737Y136017D01*
X167770Y136050D01*
X167780Y136072D01*
X167824Y136137D01*
X167857Y136191D01*
X167954Y136376D01*
X167998Y136474D01*
X168009Y136506D01*
X168020Y136550D01*
X168036Y136566D01*
X168063Y136680D01*
X168090Y136740D01*
X168101Y136784D01*
X168112Y136849D01*
X168128Y136930D01*
X168145Y136979D01*
X168156Y137034D01*
X168166Y137142D01*
X168177Y137197D01*
X168193Y137365D01*
X168204Y137398D01*
X168215Y137931D01*
X168204Y138170D01*
X168193Y138278D01*
X168177Y138425D01*
X168161Y138528D01*
X168150Y138604D01*
X168134Y138664D01*
X168123Y138708D01*
X168106Y138778D01*
X168096Y138822D01*
X168074Y138876D01*
X168052Y138963D01*
X168009Y139072D01*
X167965Y139170D01*
X167944Y139224D01*
X167911Y139278D01*
X167889Y139333D01*
X167867Y139355D01*
X167857Y139376D01*
X167780Y139485D01*
X167770Y139507D01*
X167748Y139529D01*
X167737Y139550D01*
X167568Y139719D01*
X167530Y139746D01*
X167471Y139795D01*
X167449Y139806D01*
X167427Y139828D01*
X167351Y139871D01*
X167188Y139958D01*
X167095Y139996D01*
X167036Y140012D01*
X166992Y140023D01*
X166900Y140050D01*
X166720Y140067D01*
X166688Y140077D01*
X166508Y140072D01*
X166318Y140056D01*
X166275Y140045D01*
X166220Y140023D01*
X166133Y140001D01*
X166079Y139980D01*
X165992Y139947D01*
X165960Y139915D01*
X165916Y139904D01*
X165894Y139882D01*
X165840Y139849D01*
X165796Y139806D01*
X165775Y139795D01*
X165661Y139681D01*
X165650Y139659D01*
X165622Y139632D01*
X165574Y139572D01*
X165465Y139409D01*
X165334Y139159D01*
X165291Y139061D01*
X165280Y139018D01*
X165226Y138876D01*
X165215Y138833D01*
X165199Y138784D01*
X165144Y138773D01*
X165095Y138789D01*
X165035Y138806D01*
X164992Y138816D01*
X164900Y138844D01*
X164818Y138860D01*
X164775Y138871D01*
X164720Y138893D01*
X164660Y138909D01*
X164557Y138925D01*
X164541Y138942D01*
X164427Y138969D01*
X164383Y138979D01*
X164334Y138996D01*
X164275Y139012D01*
X164188Y139034D01*
X164139Y139050D01*
X164079Y139067D01*
X164035Y139077D01*
X163927Y139110D01*
X163840Y139132D01*
X163834Y139170D01*
X163845Y139213D01*
X163867Y139268D01*
X163889Y139355D01*
X163905Y139403D01*
X163932Y139474D01*
X163943Y139518D01*
X163965Y139572D01*
X163997Y139659D01*
X164030Y139735D01*
X164160Y140007D01*
X164215Y140105D01*
X164258Y140181D01*
X164280Y140202D01*
X164291Y140224D01*
X164400Y140376D01*
X164410Y140398D01*
X164487Y140474D01*
X164497Y140496D01*
X164677Y140675D01*
X164699Y140686D01*
X164709Y140708D01*
X164731Y140719D01*
X164747Y140735D01*
X164807Y140784D01*
X164829Y140795D01*
X164851Y140817D01*
X164872Y140828D01*
X164894Y140849D01*
X164970Y140893D01*
X164992Y140915D01*
X165068Y140958D01*
X165188Y141023D01*
X165209Y141034D01*
X165329Y141088D01*
X165373Y141099D01*
X165470Y141143D01*
X165514Y141154D01*
X165574Y141170D01*
X165628Y141192D01*
X165693Y141203D01*
X165764Y141219D01*
X165824Y141235D01*
X165867Y141246D01*
X165976Y141257D01*
X166019Y141268D01*
X166085Y141279D01*
X166297Y141295D01*
X166329Y141306D01*
X166835Y141300D01*
D02*
G37*
G36*
X160877Y139376D02*
X161019Y139365D01*
X161073Y139355D01*
X161133Y139338D01*
X161165Y139327D01*
X161263Y139317D01*
X161339Y139284D01*
X161426Y139262D01*
X161475Y139246D01*
X161579Y139208D01*
X161676Y139164D01*
X161839Y139088D01*
X161937Y139034D01*
X162013Y138990D01*
X162035Y138969D01*
X162057Y138958D01*
X162133Y138903D01*
X162155Y138893D01*
X162187Y138860D01*
X162209Y138849D01*
X162252Y138806D01*
X162274Y138795D01*
X162497Y138572D01*
X162508Y138550D01*
X162535Y138523D01*
X162638Y138387D01*
X162671Y138333D01*
X162693Y138311D01*
X162736Y138235D01*
X162856Y138007D01*
X162899Y137898D01*
X162943Y137778D01*
X162964Y137724D01*
X163008Y137550D01*
X163024Y137490D01*
X163035Y137392D01*
X163057Y137305D01*
X163073Y137126D01*
X163084Y137093D01*
X163079Y136490D01*
X163068Y136371D01*
X163057Y136273D01*
X163046Y136229D01*
X163030Y136104D01*
X163008Y136028D01*
X162997Y135985D01*
X162986Y135952D01*
X162975Y135865D01*
X162948Y135805D01*
X162932Y135734D01*
X162878Y135593D01*
X162725Y135278D01*
X162649Y135169D01*
X162617Y135115D01*
X162573Y135071D01*
X162562Y135050D01*
X162530Y135017D01*
X162519Y134995D01*
X162329Y134805D01*
X162307Y134794D01*
X162274Y134762D01*
X162252Y134751D01*
X162231Y134729D01*
X162155Y134675D01*
X162078Y134631D01*
X162046Y134599D01*
X161992Y134577D01*
X161959Y134544D01*
X161916Y134533D01*
X161834Y134484D01*
X161774Y134468D01*
X161758Y134452D01*
X161687Y134425D01*
X161638Y134408D01*
X161535Y134370D01*
X161410Y134332D01*
X161318Y134316D01*
X161269Y134300D01*
X161209Y134283D01*
X161057Y134262D01*
X160915Y134251D01*
X160872Y134240D01*
X160839Y134229D01*
X160279Y134234D01*
X160138Y134256D01*
X160008Y134267D01*
X159861Y134283D01*
X159807Y134305D01*
X159763Y134316D01*
X159687Y134327D01*
X159643Y134338D01*
X159551Y134365D01*
X159480Y134381D01*
X159410Y134408D01*
X159350Y134425D01*
X159209Y134479D01*
X158937Y134609D01*
X158774Y134696D01*
X158752Y134718D01*
X158730Y134729D01*
X158578Y134838D01*
X158556Y134849D01*
X158524Y134881D01*
X158502Y134892D01*
X158458Y134935D01*
X158437Y134946D01*
X158431Y134974D01*
X158442Y135006D01*
X158453Y135028D01*
X158475Y135050D01*
X158562Y135202D01*
X158594Y135234D01*
X158638Y135311D01*
X158670Y135365D01*
X158692Y135387D01*
X158703Y135408D01*
X158931Y135767D01*
X158942Y135789D01*
X158969Y135816D01*
X159013Y135827D01*
X159040Y135800D01*
X159176Y135696D01*
X159181Y135691D01*
X159220Y135664D01*
X159241Y135653D01*
X159263Y135631D01*
X159285Y135620D01*
X159350Y135577D01*
X159426Y135533D01*
X159524Y135479D01*
X159546Y135468D01*
X159665Y135414D01*
X159709Y135403D01*
X159807Y135360D01*
X159850Y135349D01*
X159910Y135332D01*
X159964Y135311D01*
X160029Y135300D01*
X160084Y135289D01*
X160149Y135278D01*
X160220Y135262D01*
X160252Y135251D01*
X160649Y135256D01*
X160703Y135267D01*
X160774Y135283D01*
X160905Y135316D01*
X160981Y135349D01*
X161035Y135370D01*
X161089Y135403D01*
X161154Y135447D01*
X161176Y135457D01*
X161220Y135501D01*
X161241Y135512D01*
X161258Y135528D01*
X161269Y135550D01*
X161301Y135572D01*
X161312Y135593D01*
X161356Y135637D01*
X161388Y135691D01*
X161410Y135713D01*
X161421Y135734D01*
X161470Y135816D01*
X161486Y135876D01*
X161502Y135892D01*
X161524Y135947D01*
X161540Y136006D01*
X161568Y136077D01*
X161589Y136197D01*
X161600Y136251D01*
X161617Y136387D01*
X161600Y136403D01*
X161579Y136414D01*
X161546Y136425D01*
X161524Y136414D01*
X158442Y136419D01*
X158361Y136414D01*
X158344Y136430D01*
X158334Y136865D01*
X158344Y136898D01*
X158355Y137213D01*
X158366Y137257D01*
X158382Y137316D01*
X158410Y137561D01*
X158437Y137631D01*
X158453Y137724D01*
X158507Y137898D01*
X158518Y137941D01*
X158545Y138012D01*
X158562Y138072D01*
X158725Y138409D01*
X158768Y138485D01*
X158823Y138561D01*
X158834Y138583D01*
X158855Y138604D01*
X158866Y138626D01*
X158910Y138670D01*
X158921Y138691D01*
X158964Y138735D01*
X158975Y138757D01*
X159073Y138855D01*
X159133Y138903D01*
X159154Y138914D01*
X159187Y138947D01*
X159209Y138958D01*
X159230Y138979D01*
X159306Y139034D01*
X159361Y139067D01*
X159388Y139094D01*
X159459Y139121D01*
X159480Y139143D01*
X159502Y139154D01*
X159622Y139208D01*
X159736Y139257D01*
X159779Y139268D01*
X159850Y139284D01*
X159866Y139300D01*
X159910Y139311D01*
X159964Y139322D01*
X160056Y139338D01*
X160111Y139360D01*
X160274Y139371D01*
X160307Y139382D01*
X160731Y139393D01*
X160877Y139376D01*
D02*
G37*
G36*
X154751Y139382D02*
X154914Y139371D01*
X154958Y139360D01*
X155018Y139344D01*
X155061Y139333D01*
X155132Y139317D01*
X155175Y139306D01*
X155252Y139273D01*
X155295Y139262D01*
X155371Y139230D01*
X155393Y139219D01*
X155556Y139143D01*
X155708Y139056D01*
X155730Y139034D01*
X155768Y139007D01*
X155773Y139001D01*
X155817Y138969D01*
X155839Y138958D01*
X155882Y138914D01*
X155904Y138903D01*
X156002Y138806D01*
X156023Y138795D01*
X156029Y138778D01*
X156159Y138648D01*
X156197Y138588D01*
X156252Y138556D01*
X156279Y138604D01*
X156268Y138637D01*
X156273Y139164D01*
X156268Y139246D01*
X156295Y139273D01*
X157746Y139268D01*
X157757Y134365D01*
X157736Y134343D01*
X156360Y134348D01*
X156328Y134338D01*
X156295Y134348D01*
X156268Y134387D01*
X156273Y134457D01*
X156268Y137680D01*
X156225Y137724D01*
X156165Y137773D01*
X156143Y137784D01*
X156138Y137800D01*
X156116Y137811D01*
X156012Y137882D01*
X155936Y137936D01*
X155839Y137990D01*
X155817Y138012D01*
X155795Y138023D01*
X155675Y138077D01*
X155583Y138115D01*
X155540Y138126D01*
X155469Y138143D01*
X155415Y138164D01*
X155045Y138175D01*
X154969Y138143D01*
X154904Y138132D01*
X154838Y138088D01*
X154817Y138077D01*
X154735Y137996D01*
X154724Y137974D01*
X154702Y137952D01*
X154637Y137833D01*
X154626Y137735D01*
X154605Y137680D01*
X154594Y134397D01*
X154583Y134354D01*
X154561Y134343D01*
X153219Y134348D01*
X153186Y134338D01*
X153137Y134354D01*
X153126Y137778D01*
X153137Y138246D01*
X153148Y138289D01*
X153164Y138349D01*
X153175Y138414D01*
X153191Y138507D01*
X153219Y138567D01*
X153235Y138626D01*
X153311Y138789D01*
X153344Y138844D01*
X153355Y138865D01*
X153376Y138887D01*
X153387Y138909D01*
X153431Y138952D01*
X153442Y138974D01*
X153556Y139088D01*
X153577Y139099D01*
X153594Y139116D01*
X153697Y139186D01*
X153838Y139262D01*
X153909Y139289D01*
X153963Y139311D01*
X154034Y139327D01*
X154077Y139338D01*
X154132Y139360D01*
X154273Y139371D01*
X154306Y139382D01*
X154719Y139393D01*
X154751Y139382D01*
D02*
G37*
%LPC*%
G36*
X160649Y138344D02*
X160480Y138338D01*
X160372Y138327D01*
X160317Y138305D01*
X160274Y138295D01*
X160176Y138251D01*
X160143Y138240D01*
X160067Y138186D01*
X160046Y138175D01*
X159937Y138066D01*
X159888Y138007D01*
X159845Y137931D01*
X159801Y137865D01*
X159790Y137822D01*
X159774Y137805D01*
X159747Y137735D01*
X159709Y137610D01*
X159692Y137528D01*
X159681Y137496D01*
X159671Y137398D01*
X159660Y137354D01*
X159649Y137322D01*
X159665Y137294D01*
X161111Y137284D01*
X161122D01*
X161584Y137289D01*
X161595Y137333D01*
X161584Y137376D01*
X161573Y137452D01*
X161557Y137501D01*
X161530Y137615D01*
X161486Y137713D01*
X161410Y137876D01*
X161366Y137952D01*
X161334Y137985D01*
X161323Y138007D01*
X161290Y138039D01*
X161279Y138061D01*
X161263Y138077D01*
X161241Y138088D01*
X161176Y138153D01*
X161122Y138186D01*
X161089Y138219D01*
X161067Y138230D01*
X161013Y138251D01*
X160997Y138268D01*
X160942Y138289D01*
X160899Y138300D01*
X160845Y138322D01*
X160790Y138333D01*
X160649Y138344D01*
D02*
G37*
%LPD*%
D10*
X196850Y98425D02*
G03*
X196850Y98425I-98425J0D01*
G01*
D11*
X92638Y140157D02*
D03*
D12*
X102638D02*
D03*
D13*
X137795Y55905D02*
D03*
X59055D02*
D03*
M02*
